<?xml version="1.0" standalone="no"?>
<!DOCTYPE svg PUBLIC "-//W3C//DTD SVG 20010904//EN"
 "http://www.w3.org/TR/2001/REC-SVG-20010904/DTD/svg10.dtd">
<svg version="1.0" xmlns="http://www.w3.org/2000/svg"
 width="721.000000pt" height="474.000000pt" viewBox="0 0 721.000000 474.000000"
 preserveAspectRatio="xMidYMid meet">

<g transform="translate(0.000000,474.000000) scale(0.100000,-0.100000)"
fill="#000000" stroke="none">
<path d="M4400 4730 c-90 -8 -212 -42 -295 -81 -224 -107 -413 -228 -510 -329
-27 -29 -65 -64 -83 -78 -38 -29 -75 -88 -92 -147 l-12 -40 -236 0 -237 0 -95
-33 c-52 -18 -124 -49 -160 -69 -94 -51 -230 -143 -230 -155 0 -5 -23 -36 -52
-67 -55 -60 -157 -211 -203 -301 -16 -30 -43 -100 -61 -155 -18 -55 -45 -134
-60 -175 -23 -64 -28 -95 -32 -211 l-4 -136 -67 -7 c-86 -8 -270 -48 -342 -75
-31 -12 -101 -50 -155 -84 -55 -34 -120 -75 -147 -90 -26 -16 -87 -63 -135
-105 -109 -96 -264 -205 -338 -238 -81 -36 -181 -54 -295 -54 -107 0 -132 8
-199 60 -19 15 -87 53 -150 84 -63 32 -132 71 -152 87 -53 42 -48 18 15 -72
72 -104 118 -207 171 -384 55 -182 77 -237 168 -419 132 -264 149 -287 342
-448 122 -102 267 -194 368 -235 32 -13 126 -34 220 -48 141 -21 470 -85 520
-101 9 -3 28 -25 42 -48 66 -112 318 -358 433 -422 230 -129 498 -172 803
-129 153 22 201 38 272 95 35 28 98 71 142 97 43 26 114 78 157 115 77 66 79
67 90 45 78 -151 236 -245 514 -303 206 -43 505 -43 650 1 174 53 478 250 579
375 63 77 142 198 167 255 10 22 21 70 25 106 l6 66 127 6 c175 7 336 39 438
88 45 21 85 39 88 39 3 0 49 23 101 52 133 73 254 179 373 326 118 148 143
191 171 301 11 46 32 111 45 146 13 35 28 98 35 141 6 44 18 115 26 159 36
195 26 458 -24 635 -32 114 -192 443 -254 522 -90 115 -157 183 -257 261 -57
45 -135 108 -173 140 -103 88 -273 142 -525 168 l-123 13 0 32 c0 62 -39 158
-100 249 -61 89 -273 307 -350 360 -52 36 -287 124 -430 161 -108 28 -184 39
-400 58 -19 1 -69 0 -110 -4z m260 -125 c63 -8 150 -23 193 -35 84 -22 349
-120 407 -150 52 -28 280 -264 337 -350 59 -89 67 -110 88 -215 9 -44 20 -84
24 -88 4 -4 84 -9 177 -11 161 -2 173 -4 257 -34 49 -17 126 -52 173 -77 129
-70 315 -197 355 -242 122 -135 236 -377 320 -678 41 -145 42 -155 43 -305 2
-252 -46 -475 -148 -698 -29 -64 -56 -127 -60 -139 -4 -12 -44 -71 -90 -133
-71 -95 -98 -122 -191 -191 -131 -97 -190 -128 -344 -180 -113 -38 -120 -39
-256 -39 -195 0 -345 34 -441 101 -123 84 -222 218 -272 366 -23 70 -26 94
-27 229 l0 150 39 75 c69 132 198 274 292 320 l64 32 132 -5 133 -5 -40 19
c-129 59 -263 64 -370 13 -73 -34 -222 -180 -274 -267 -67 -115 -84 -172 -89
-304 -7 -187 25 -327 109 -474 73 -128 265 -298 391 -348 l37 -15 -6 -61 c-7
-73 -24 -117 -88 -216 -66 -104 -113 -153 -225 -236 -119 -88 -197 -134 -307
-179 -188 -78 -478 -85 -783 -19 -90 20 -87 18 -209 104 -110 78 -161 130
-193 195 -20 41 -38 58 -38 36 0 -5 -53 -49 -117 -97 -65 -49 -139 -108 -166
-132 -26 -23 -93 -65 -148 -93 -90 -45 -116 -53 -252 -76 -146 -25 -158 -25
-312 -15 -176 12 -215 22 -367 95 -79 38 -108 60 -193 142 -55 54 -117 108
-138 121 -46 30 -101 136 -153 298 -36 109 -36 113 -35 265 2 160 16 233 63
326 72 141 307 250 569 262 102 5 126 3 190 -17 41 -12 88 -29 104 -37 37 -19
132 -93 202 -157 29 -27 53 -43 53 -36 0 16 -59 124 -116 210 -47 72 -78 94
-189 131 -62 21 -87 24 -230 24 -155 -1 -164 -2 -280 -37 -144 -44 -251 -100
-323 -171 -66 -65 -92 -109 -128 -217 -28 -82 -29 -92 -30 -293 0 -114 -5
-212 -10 -217 -21 -20 -123 -29 -216 -19 -145 16 -467 93 -540 130 -188 95
-302 184 -395 309 -54 73 -204 360 -247 474 -46 120 -109 327 -101 334 3 3 18
-4 33 -15 76 -56 112 -67 232 -71 133 -4 258 19 363 66 73 34 239 157 346 258
72 68 340 248 413 278 44 18 349 76 402 76 l42 0 17 83 c9 45 17 101 17 123 0
89 26 194 132 537 35 114 138 250 258 340 68 52 269 140 385 169 69 17 99 19
210 14 114 -5 221 -19 232 -29 2 -2 -2 -19 -8 -37 -9 -23 -10 -96 -6 -244 9
-318 37 -410 164 -535 58 -56 100 -87 163 -119 256 -128 427 -157 610 -102
105 32 138 57 233 175 75 93 91 121 113 189 25 78 26 87 19 246 -6 144 -21
283 -24 225 0 -11 -10 -108 -21 -215 -17 -165 -24 -203 -47 -249 -32 -67 -83
-118 -177 -180 -145 -94 -286 -108 -473 -46 -143 48 -245 104 -316 173 -103
100 -127 176 -127 396 1 177 12 256 62 410 l41 131 79 79 c43 43 78 82 78 86
0 15 159 129 245 175 50 26 122 66 161 87 153 82 304 103 534 73z"/>
</g>
</svg>
